<?xml version="1.0" encoding="utf-8"?><!-- Generator: Adobe Illustrator 25.2.3, SVG Export Plug-In . SVG Version: 6.00 Build 0)  --><svg xmlns="http://www.w3.org/2000/svg" xmlns:xlink="http://www.w3.org/1999/xlink" version="1.1" id="Layer_160c8fa9dec5d0" x="0px" y="0px" viewBox="0 0 314.2 299" style="enable-background:new 0 0 314.2 299;" xml:space="preserve" aria-hidden="true" width="314px" height="299px"><defs><linearGradient class="cerosgradient"  id="CerosGradient_iddead70b4c" gradientUnits="userSpaceOnUse" x1="50%" y1="100%" x2="50%" y2="0%"><stop offset="0%" stop-color="#d1d1d1"/><stop offset="100%" stop-color="#d1d1d1"/></linearGradient><linearGradient/></defs>
<style type="text/css">
	.st0-60c8fa9dec5d0{fill:#68737A;}
	.st1-60c8fa9dec5d0{fill:#E5F4FA;}
	.st2-60c8fa9dec5d0{display:none;}
	.st3-60c8fa9dec5d0{display:inline;fill:none;stroke:#E5F4FA;stroke-width:10;}
	.st4-60c8fa9dec5d0{display:inline;fill:#68737A;}
	.st5-60c8fa9dec5d0{display:inline;}
	.st6-60c8fa9dec5d0{clip-path:url(#SVGID_2_60c8fa9dec5d0);}
	.st7-60c8fa9dec5d0{fill:#6AE692;}
</style>
<g id="Group_17260c8fa9dec5d0" transform="translate(-62.08 -12.972)">
	<g id="Group_16660c8fa9dec5d0" transform="translate(263.823 12.972)">
		<rect id="Rectangle_14060c8fa9dec5d0" x="-199" class="st0-60c8fa9dec5d0" width="251.6" height="297.4"/>
		<path id="Path_35360c8fa9dec5d0" class="st1-60c8fa9dec5d0" d="M26.7,202.7l-44.8-34.5l14.9-19.3l25.4,19.5l70.9-92.9l19.4,14.8L26.7,202.7z"/>
		<g id="Group_16560c8fa9dec5d0" transform="translate(35.09 88.373)">
			<rect id="Rectangle_14160c8fa9dec5d0" x="-199" y="0" class="st1-60c8fa9dec5d0" width="88.5" height="12"/>
			<rect id="Rectangle_14260c8fa9dec5d0" x="-199" y="42.9" class="st1-60c8fa9dec5d0" width="88.5" height="12"/>
			<rect id="Rectangle_14360c8fa9dec5d0" x="-199" y="85.8" class="st1-60c8fa9dec5d0" width="88.5" height="12"/>
			<rect id="Rectangle_14460c8fa9dec5d0" x="-199" y="128.7" class="st1-60c8fa9dec5d0" width="88.5" height="12"/>
		</g>
	</g>
	<g id="Group_16760c8fa9dec5d0" transform="translate(62.08 158.769)" class="st2-60c8fa9dec5d0">
		<path id="Path_36260c8fa9dec5d0" class="st3-60c8fa9dec5d0" d="M-111.3,237.4l26.5-32.2"/>
		<path id="Path_35460c8fa9dec5d0" class="st4-60c8fa9dec5d0" d="M-52.2,224.6c-61.4-12.2-101.4-71.8-89.2-133.2S-69.6-10-8.2,2.2S93.2,74,81,135.4c0,0,0,0,0,0    C68.8,196.8,9.2,236.7-52.2,224.6z M-11.8,20.2C-63.2,10-113.2,43.5-123.4,95s23.3,101.4,74.7,111.6    C2.8,216.7,52.8,183.3,63,131.8c0,0,0,0,0,0C73.1,80.4,39.7,30.5-11.8,20.2L-11.8,20.2z"/>
		<path id="Path_35560c8fa9dec5d0" class="st4-60c8fa9dec5d0" d="M-118,222.6l22.6,16.9l-77.5,105.6l-26.1-18.6L-118,222.6z"/>
	</g>
	<g id="Group_17160c8fa9dec5d0" transform="translate(134.41 176.335)" class="st2-60c8fa9dec5d0">
		<g class="st5-60c8fa9dec5d0">
			<defs>
				<circle id="SVGID_1_60c8fa9dec5d0" cx="-102.9" cy="96.1" r="96.1"/>
			</defs>
			<clipPath id="SVGID_2_60c8fa9dec5d0">
				<use xlink:href="#SVGID_1_60c8fa9dec5d0" style="overflow:visible;"/>
			</clipPath>
			<g id="Group_17060c8fa9dec5d0" class="st6-60c8fa9dec5d0">
				<g id="Group_16960c8fa9dec5d0" transform="translate(84.925 -201.811)">
					<rect id="Rectangle_14560c8fa9dec5d0" x="-199" y="0" class="st0-60c8fa9dec5d0" width="323.8" height="382.7"/>
					<path id="Path_35660c8fa9dec5d0" class="st7-60c8fa9dec5d0" d="M91.5,260.8l-57.7-44.4L53,191.6l32.7,25.2l91.2-119.6l24.9,19L91.5,260.8z"/>
					<g id="Group_16860c8fa9dec5d0" transform="translate(45.161 113.734)">
						<rect id="Rectangle_14660c8fa9dec5d0" x="-199" y="0" class="st1-60c8fa9dec5d0" width="113.9" height="15.4"/>
						<rect id="Rectangle_14760c8fa9dec5d0" x="-199" y="55.2" class="st1-60c8fa9dec5d0" width="113.9" height="15.4"/>
						<rect id="Rectangle_14860c8fa9dec5d0" x="-199" y="110.4" class="st1-60c8fa9dec5d0" width="113.9" height="15.4"/>
						<rect id="Rectangle_14960c8fa9dec5d0" x="-199" y="165.6" class="st1-60c8fa9dec5d0" width="113.9" height="15.4"/>
					</g>
				</g>
			</g>
		</g>
	</g>
</g>
</svg>